<svg width="102" height="31" viewBox="0 0 102 31" fill="none" xmlns="http://www.w3.org/2000/svg">
<g clip-path="url(#clip0_12989_129952)">
<path d="M101.322 27.3392C101.322 28.9795 100.027 30.308 98.424 30.308H3.57396C1.97207 30.308 0.671875 28.9795 0.671875 27.3392V3.66385C0.671875 2.02442 1.97213 0.691162 3.57396 0.691162H98.4232C100.027 0.691162 101.322 2.02442 101.322 3.66385L101.322 27.3392Z" fill="white"/>
<path d="M98.4251 30.9988H3.57495C1.60416 30.9988 0 29.3579 0 27.3394V3.66481C0 1.64478 1.60416 0.00146484 3.57495 0.00146484H98.4242C100.393 0.00146484 101.999 1.64478 101.999 3.66481V27.3394C102.001 29.3579 100.394 30.9988 98.4251 30.9988Z" fill="#5B2E4F"/>
<path d="M101.322 27.3392C101.322 28.9795 100.027 30.308 98.4241 30.308H3.57396C1.97207 30.308 0.671875 28.9795 0.671875 27.3392V3.66385C0.671875 2.02442 1.97213 0.691162 3.57396 0.691162H98.4232C100.027 0.691162 101.322 2.02442 101.322 3.66385L101.322 27.3392Z" fill="#5B2E4F"/>
<path d="M22.7772 15.3367C22.7553 12.8384 24.7722 11.623 24.8645 11.5664C23.7222 9.85877 21.9518 9.62545 21.3296 9.60685C19.8427 9.44639 18.4003 10.5192 17.6428 10.5192C16.8702 10.5192 15.7038 9.62235 14.4466 9.64871C12.8288 9.67429 11.3154 10.6347 10.4853 12.1261C8.77238 15.167 10.0499 19.6357 11.6912 22.0937C12.5121 23.2983 13.4715 24.6416 14.727 24.5943C15.9555 24.5432 16.4144 23.792 17.8968 23.792C19.3656 23.792 19.7965 24.5943 21.0771 24.5641C22.3955 24.5432 23.2255 23.3549 24.0178 22.1402C24.9666 20.7612 25.3475 19.4016 25.3627 19.3318C25.3324 19.321 22.8029 18.3304 22.7772 15.3367ZM20.3582 7.98989C21.0188 7.14265 21.4709 5.99001 21.3455 4.82031C20.3891 4.86372 19.1932 5.49857 18.5045 6.3272C17.8952 7.05739 17.3509 8.25422 17.4915 9.37973C18.5658 9.4619 19.6687 8.82395 20.3582 7.98989Z" fill="white"/>
<path d="M40.5714 24.4216H38.8546L37.9142 21.3916H34.6453L33.7495 24.4216H32.0781L35.3174 14.1059H37.3177L40.5714 24.4216ZM37.6307 20.1203L36.7803 17.4267C36.6903 17.1515 36.521 16.5035 36.273 15.4834H36.2428C36.143 15.9221 35.9835 16.5701 35.765 17.4267L34.9289 20.1203H37.6307ZM48.8855 20.611C48.8855 21.876 48.5506 22.876 47.88 23.6101C47.2799 24.2635 46.5337 24.5899 45.6439 24.5899C44.6831 24.5899 43.9921 24.2387 43.5726 23.5349V27.4378H41.9608V19.4281C41.9608 18.6335 41.9405 17.8189 41.9012 16.9833H43.3186L43.4086 18.1623H43.4387C43.9762 17.274 44.7919 16.8297 45.8866 16.8297C46.7423 16.8297 47.4567 17.1762 48.0282 17.87C48.599 18.5654 48.8855 19.4785 48.8855 20.611ZM47.2435 20.6714C47.2435 19.9475 47.0848 19.3506 46.7657 18.8801C46.4172 18.391 45.9493 18.1461 45.3627 18.1461C44.965 18.1461 44.6037 18.2824 44.2809 18.5514C43.9573 18.8227 43.7457 19.177 43.6467 19.6157C43.5968 19.8203 43.5719 19.987 43.5719 20.1188V21.3598C43.5719 21.9001 43.7336 22.3567 44.0572 22.7303C44.3807 23.1024 44.8011 23.2891 45.3181 23.2891C45.9252 23.2891 46.3977 23.0481 46.7356 22.5698C47.0742 22.09 47.2435 21.4574 47.2435 20.6714ZM57.229 20.611C57.229 21.876 56.8942 22.876 56.2236 23.6101C55.6226 24.2635 54.8772 24.5899 53.9867 24.5899C53.0259 24.5899 52.3349 24.2387 51.9154 23.5349V27.4378H50.3037V19.4281C50.3037 18.6335 50.2832 17.8189 50.2439 16.9833H51.6614L51.7513 18.1623H51.7816C52.3183 17.274 53.134 16.8297 54.2293 16.8297C55.0843 16.8297 55.7987 17.1762 56.3718 17.87C56.9418 18.5654 57.229 19.4785 57.229 20.611ZM55.5863 20.6714C55.5863 19.9475 55.4269 19.3506 55.1078 18.8801C54.7593 18.391 54.2929 18.1461 53.7063 18.1461C53.3086 18.1461 52.9473 18.2824 52.623 18.5514C52.2994 18.8227 52.0886 19.177 51.9895 19.6157C51.9403 19.8203 51.9139 19.987 51.9139 20.1188V21.3598C51.9139 21.9001 52.0764 22.3567 52.3984 22.7303C52.722 23.1016 53.1423 23.2891 53.6609 23.2891C54.2686 23.2891 54.7411 23.0481 55.0783 22.5698C55.417 22.09 55.5863 21.4574 55.5863 20.6714ZM66.5576 21.528C66.5576 22.4062 66.2583 23.1201 65.6634 23.6713C65.0087 24.2728 64.0948 24.5743 62.923 24.5743C61.8404 24.5743 60.9726 24.3604 60.3179 23.9317L60.6906 22.5543C61.3974 22.9837 62.1738 23.1976 63.019 23.1976C63.6268 23.1976 64.0992 23.0566 64.4364 22.7767C64.7743 22.4961 64.9452 22.121 64.9452 21.6528C64.9452 21.2335 64.8038 20.8823 64.5264 20.5963C64.2474 20.3111 63.7863 20.0452 63.1385 19.801C61.377 19.1274 60.4956 18.1422 60.4956 16.8462C60.4956 15.9997 60.807 15.3067 61.4285 14.7649C62.0499 14.2238 62.8739 13.9534 63.899 13.9534C64.8144 13.9534 65.5772 14.1169 66.1827 14.4433L65.7783 15.7904C65.2083 15.4741 64.5649 15.316 63.8452 15.316C63.2768 15.316 62.8307 15.4594 62.5117 15.7447C62.2434 15.9997 62.1073 16.3106 62.1073 16.6795C62.1073 17.0865 62.2623 17.4245 62.5707 17.6896C62.8383 17.9337 63.3267 18.1996 64.0327 18.4849C64.8991 18.843 65.5355 19.26 65.943 19.7391C66.3535 20.218 66.5576 20.8156 66.5576 21.528ZM71.9001 18.2235H70.1235V21.8349C70.1235 22.7535 70.4365 23.2116 71.064 23.2116C71.352 23.2116 71.5909 23.1867 71.7799 23.1349L71.8244 24.3898C71.507 24.5116 71.0889 24.5728 70.571 24.5728C69.9345 24.5728 69.4371 24.3735 69.078 23.9751C68.7205 23.5767 68.5406 22.9093 68.5406 21.9698V18.2204H67.4822V16.9802H68.5406V15.6183L70.1235 15.1284V16.9802H71.9001V18.2235ZM79.8996 20.6412C79.8996 21.7845 79.5807 22.7232 78.9441 23.4573C78.2781 24.2131 77.3921 24.5898 76.2876 24.5898C75.2217 24.5898 74.3743 24.2278 73.7423 23.5046C73.1103 22.7798 72.7943 21.8667 72.7943 20.7652C72.7943 19.6125 73.1209 18.6685 73.7718 17.9344C74.4242 17.1996 75.3027 16.8322 76.4071 16.8322C77.4715 16.8322 78.3265 17.1949 78.9736 17.9189C79.592 18.6212 79.8996 19.5281 79.8996 20.6412ZM78.229 20.6792C78.229 19.9978 78.0854 19.4133 77.7973 18.9242C77.4594 18.3335 76.9756 18.0383 76.3489 18.0383C75.7033 18.0383 75.2082 18.3335 74.871 18.9242C74.5822 19.4133 74.4386 20.0079 74.4386 20.7101C74.4386 21.3923 74.5822 21.9783 74.871 22.4659C75.2195 23.0566 75.7056 23.3519 76.3353 23.3519C76.9514 23.3519 77.4344 23.0504 77.7837 22.4512C78.0801 21.9504 78.229 21.3621 78.229 20.6792ZM85.1408 18.4367C84.9813 18.4064 84.8104 18.3909 84.6328 18.3909C84.0658 18.3909 83.6274 18.6096 83.319 19.0498C83.0514 19.4373 82.9168 19.9272 82.9168 20.5187V24.4215H81.305V19.3258C81.305 18.4692 81.2892 17.6879 81.2582 16.9841H82.6621L82.721 18.4072H82.7656C82.9365 17.9181 83.2041 17.5235 83.5715 17.2282C83.9306 16.9624 84.3183 16.8297 84.7364 16.8297C84.8853 16.8297 85.0199 16.8406 85.1394 16.86L85.1408 18.4367ZM92.3489 20.3505C92.3489 20.6466 92.33 20.8962 92.2899 21.1001H87.4548C87.4729 21.8349 87.7073 22.3977 88.1563 22.7853C88.5638 23.1311 89.0907 23.3046 89.7378 23.3046C90.4537 23.3046 91.1067 23.1883 91.6942 22.9535L91.9467 24.0999C91.2603 24.4069 90.4499 24.5596 89.5147 24.5596C88.3899 24.5596 87.5069 24.22 86.8643 23.5426C86.2233 22.8643 85.9021 21.9528 85.9021 20.811C85.9021 19.69 86.2007 18.7561 86.7986 18.0111C87.4246 17.2158 88.2704 16.8181 89.3349 16.8181C90.3804 16.8181 91.1718 17.2158 91.7093 18.0111C92.1349 18.6413 92.3489 19.4227 92.3489 20.3505ZM90.812 19.9219C90.8233 19.4312 90.7175 19.0088 90.499 18.6514C90.22 18.191 89.7907 17.9615 89.2154 17.9615C88.6885 17.9615 88.2591 18.1855 87.9325 18.6351C87.6642 18.9925 87.5046 19.4219 87.4556 19.9203L90.812 19.9219Z" fill="white"/>
<path d="M36.8471 10.4138H36.0027L35.5408 8.92477H33.9343L33.4936 10.4138H32.6719L34.2639 5.34359H35.2467L36.8471 10.4138ZM35.4017 8.3L34.9836 6.97605C34.9398 6.8404 34.8589 6.52491 34.7341 6.02106H34.719C34.6676 6.23888 34.5943 6.55514 34.4839 6.97605L34.0734 8.3H35.4017ZM40.828 6.75823L39.4778 10.4138H38.7074L37.4012 6.75823H38.2524L38.8617 8.69145C38.9645 9.01468 39.0522 9.32319 39.118 9.6162H39.1399C39.1989 9.35342 39.2866 9.04491 39.3962 8.69145L39.9979 6.75823H40.828ZM43.7021 10.4138L43.6432 9.99286H43.6212C43.3793 10.3316 43.027 10.4967 42.5795 10.4967C41.9414 10.4967 41.4864 10.0378 41.4864 9.4208C41.4864 8.51852 42.2491 8.05189 43.5698 8.05189V7.98445C43.5698 7.50308 43.3203 7.26201 42.8289 7.26201C42.4766 7.26201 42.1682 7.3527 41.8976 7.53331L41.7365 6.99924C42.0669 6.7884 42.4774 6.68298 42.9619 6.68298C43.8933 6.68298 44.3635 7.18682 44.3635 8.19529V9.54172C44.3635 9.91069 44.3786 10.1967 44.4149 10.4145L43.7021 10.4138ZM43.5918 8.593C42.7111 8.593 42.2711 8.8116 42.2711 9.33017C42.2711 9.71387 42.4986 9.90145 42.8139 9.90145C43.2175 9.90145 43.5918 9.58597 43.5918 9.15731V8.593ZM46.128 6.15594C45.8642 6.15594 45.6586 5.9451 45.6586 5.66682C45.6586 5.38854 45.8711 5.18546 46.1432 5.18546C46.4145 5.18546 46.6345 5.38854 46.627 5.66682C46.627 5.9606 46.4222 6.15594 46.128 6.15594ZM46.5393 10.4138H45.747V6.75823H46.5393V10.4138ZM48.7391 10.4138H47.9469V5.08081H48.7391V10.4138ZM52.1062 10.4138L52.0472 9.99286H52.0253C51.7834 10.3316 51.4311 10.4967 50.9836 10.4967C50.3456 10.4967 49.8905 10.0378 49.8905 9.4208C49.8905 8.51852 50.6532 8.05189 51.9738 8.05189V7.98445C51.9738 7.50308 51.7244 7.26201 51.233 7.26201C50.8807 7.26201 50.5723 7.3527 50.3016 7.53331L50.1399 6.99846C50.4703 6.78762 50.8808 6.6822 51.3654 6.6822C52.2967 6.6822 52.7668 7.18605 52.7668 8.19451V9.54094C52.7668 9.90991 52.7828 10.1959 52.8176 10.4138H52.1062V10.4138ZM51.9958 8.593C51.1151 8.593 50.6752 8.8116 50.6752 9.33017C50.6752 9.71387 50.9026 9.90145 51.2179 9.90145C51.6216 9.90145 51.9958 9.58597 51.9958 9.15731V8.593ZM55.9768 10.4968C55.4711 10.4968 55.0975 10.2782 54.8556 9.84952H54.8398L54.7944 10.4138H54.1193C54.1413 10.1208 54.1488 9.78906 54.1488 9.42861V5.08081H54.9418V7.29308H54.9569C55.192 6.8869 55.5724 6.68382 56.0939 6.68382C56.9527 6.68382 57.5544 7.43648 57.5544 8.53409C57.5544 9.66891 56.8862 10.4968 55.9768 10.4968ZM55.8157 7.32176C55.3599 7.32176 54.9426 7.72794 54.9426 8.29225V8.93174C54.9426 9.43559 55.3175 9.84952 55.8022 9.84952C56.3956 9.84952 56.7486 9.35342 56.7486 8.56355C56.7478 7.82638 56.3804 7.32176 55.8157 7.32176ZM59.5177 10.4138H58.7262V5.08081H59.5177V10.4138ZM63.8305 8.78136H61.4522C61.4681 9.47357 61.9141 9.86425 62.5748 9.86425C62.9271 9.86425 63.2499 9.80378 63.5356 9.69139L63.6588 10.2557C63.3217 10.4061 62.9256 10.4813 62.4637 10.4813C61.3479 10.4813 60.6879 9.75883 60.6879 8.63874C60.6879 7.51787 61.3638 6.67529 62.3745 6.67529C63.2839 6.67529 63.8569 7.3675 63.8569 8.41317C63.8599 8.5558 63.8531 8.6837 63.8305 8.78136ZM63.104 8.20233C63.104 7.63802 62.8249 7.2396 62.3185 7.2396C61.8634 7.2396 61.5051 7.64577 61.4522 8.20233H63.104ZM68.6323 10.4968C67.5906 10.4968 66.9155 9.69914 66.9155 8.61626C66.9155 7.48764 67.605 6.68304 68.692 6.68304C69.7178 6.68304 70.4088 7.44268 70.4088 8.55657C70.4089 9.69914 69.6967 10.4968 68.6323 10.4968ZM68.6626 7.2768C68.0903 7.2768 67.7237 7.82561 67.7237 8.593C67.7237 9.34567 68.0979 9.89448 68.6551 9.89448C69.2122 9.89448 69.5856 9.30769 69.5856 8.5775C69.5863 7.83336 69.2197 7.2768 68.6626 7.2768ZM74.6679 10.4138H73.8765V8.31473C73.8765 7.66825 73.6345 7.34424 73.1576 7.34424C72.6881 7.34424 72.3646 7.75817 72.3646 8.23954V10.4138H71.5731V7.80313C71.5731 7.47989 71.5648 7.1334 71.5436 6.75745H72.2406L72.2776 7.32176H72.2996C72.5112 6.93109 72.9452 6.68227 73.429 6.68227C74.1766 6.68227 74.668 7.26905 74.668 8.22403V10.4138H74.6679ZM79.8516 7.3675H78.98V9.14258C78.98 9.59449 79.1335 9.82006 79.4411 9.82006C79.5809 9.82006 79.6989 9.80456 79.7934 9.78208L79.8154 10.3991C79.6611 10.4596 79.4547 10.4898 79.1999 10.4898C78.5755 10.4898 78.2028 10.1363 78.2028 9.2108V7.3675H77.6827V6.75823H78.2028V6.0885L78.98 5.84743V6.75745H79.8516V7.3675ZM84.0472 10.4138H83.2542V8.33023C83.2542 7.676 83.0123 7.34502 82.5353 7.34502C82.1248 7.34502 81.7438 7.63105 81.7438 8.21008V10.4138H80.9508V5.08081H81.7438V7.2768H81.7589C82.0084 6.87838 82.3683 6.68227 82.8301 6.68227C83.5854 6.68227 84.0472 7.28378 84.0472 8.23954V10.4138ZM88.0954 8.78136H85.7179C85.733 9.47357 86.1791 9.86425 86.8398 9.86425C87.1929 9.86425 87.5149 9.80378 87.8007 9.69139L87.9246 10.2557C87.5874 10.4061 87.1906 10.4813 86.7287 10.4813C85.6129 10.4813 84.953 9.75883 84.953 8.63874C84.953 7.51787 85.6288 6.67529 86.6395 6.67529C87.549 6.67529 88.122 7.3675 88.122 8.41317C88.1249 8.5558 88.1173 8.6837 88.0954 8.78136ZM87.3689 8.20233C87.3689 7.63802 87.0907 7.2396 86.5842 7.2396C86.1283 7.2396 85.77 7.64577 85.7179 8.20233H87.3689Z" fill="white"/>
</g>
<defs>
<clipPath id="clip0_12989_129952">
<rect width="102" height="31" fill="white"/>
</clipPath>
</defs>
</svg>
