<svg width="111" height="32" viewBox="0 0 111 32" fill="none" xmlns="http://www.w3.org/2000/svg">
<path d="M111 28.7923C111 30.5646 109.571 32 107.804 32H3.20049C1.43389 32 0 30.5646 0 28.7923V3.21189C0 1.44054 1.43396 0 3.20049 0H107.803C109.571 0 110.999 1.44054 110.999 3.21189L111 28.7923Z" fill="#5B2E4F"/>
<path d="M17.7585 14.7716C17.7585 14.7716 10.8726 10.9305 10.4671 10.7062C10.0617 10.4818 9.65625 10.6178 9.65625 11.0869V27.6408C9.65625 27.9944 9.94682 28.1439 10.2982 27.9536C10.6496 27.7564 17.7585 23.793 17.7585 23.793C17.7585 23.793 18.7248 23.2559 19.2046 22.984C19.9817 22.5489 21.5359 21.6855 21.5359 21.6855C21.5359 21.6855 24.7457 19.8975 25.1714 19.6596C25.5971 19.4217 25.5566 19.0953 25.1985 18.9118C24.8403 18.7282 21.5427 16.8723 21.5427 16.8723L17.7585 14.7716Z" fill="url(#paint0_linear_12989_129961)"/>
<path d="M19.0257 19.2584L9.97069 10.6245C9.7612 10.6721 9.63281 10.8353 9.63281 11.1004V27.6204C9.63281 27.8447 9.72066 27.9807 9.83554 28.0283L19.0257 19.2584Z" fill="url(#paint1_linear_12989_129961)"/>
<mask id="mask0_12989_129961" style="mask-type:alpha" maskUnits="userSpaceOnUse" x="9" y="10" width="11" height="19">
<path d="M19.0257 19.2584L9.97069 10.6245C9.7612 10.6721 9.63281 10.8353 9.63281 11.1004V27.6204C9.63281 27.8447 9.72066 27.9807 9.83554 28.0283L19.0257 19.2584Z" fill="white"/>
</mask>
<g mask="url(#mask0_12989_129961)">
</g>
<mask id="mask1_12989_129961" style="mask-type:alpha" maskUnits="userSpaceOnUse" x="9" y="19" width="13" height="10">
<path d="M10.2076 27.9811L15.4446 25.085C16.7353 24.3643 17.7557 23.7933 17.7557 23.7933L21.5602 21.7334L19.0261 19.2588L9.83594 28.0286C9.9373 28.0626 10.1198 28.0422 10.2617 27.9743" fill="white"/>
</mask>
<g mask="url(#mask1_12989_129961)">
<path d="M17.7418 14.772C17.7283 14.806 10.8424 10.9581 10.4437 10.761C10.0383 10.5026 9.63281 10.6454 9.63281 11.1009V27.6888C9.63281 28.0559 9.92338 28.2055 10.241 28.0287C10.6262 27.8112 17.7283 23.8478 17.7418 23.8138L21.526 21.7063C21.5057 21.7335 24.7087 19.9455 25.1074 19.7348C25.5669 19.4696 25.5196 19.1433 25.175 18.987C24.8034 18.7694 21.5057 16.9135 21.526 16.8795L17.7418 14.772Z" fill="url(#paint2_linear_12989_129961)"/>
</g>
<path d="M10.4475 10.6995C10.2718 10.6111 10.1028 10.5839 9.96094 10.6179L19.0227 19.2654L21.5297 16.8792L17.7523 14.7717C17.7523 14.7717 14.1911 12.7866 12.0422 11.5901L10.4475 10.6995Z" fill="url(#paint3_linear_12989_129961)"/>
<mask id="mask2_12989_129961" style="mask-type:alpha" maskUnits="userSpaceOnUse" x="9" y="10" width="13" height="10">
<path d="M10.4475 10.6995C10.2718 10.6111 10.1028 10.5839 9.96094 10.6179L19.0227 19.2654L21.5297 16.8792L17.7523 14.7717C17.7523 14.7717 14.1911 12.7866 12.0422 11.5901L10.4475 10.6995Z" fill="white"/>
</mask>
<g mask="url(#mask2_12989_129961)">
</g>
<path d="M73.9367 22.1748L73.1866 22.8886C73.0109 22.9838 72.842 23.0994 72.6731 23.1741C72.1527 23.4121 71.6257 23.4733 71.1526 23.4733C70.6526 23.4733 69.8687 23.4393 69.0713 22.8546C67.9631 22.066 67.4766 20.6995 67.4766 19.5166C67.4766 17.0624 69.4497 15.8591 71.0648 15.8591C71.6257 15.8591 72.2068 16.0019 72.6731 16.301C73.4569 16.8245 73.6597 17.5043 73.7678 17.8714L70.0917 19.3739L68.8889 19.469C69.2808 21.4814 70.6255 22.6507 72.1122 22.6507C72.8555 22.6507 73.4029 22.4059 73.9097 22.1544C73.9097 22.1544 74.011 22.1 73.9367 22.1748ZM71.6932 18.1366C71.9906 18.0278 72.1392 17.9326 72.1392 17.7083C72.1392 17.0692 71.4432 16.335 70.6053 16.335C69.9903 16.335 68.8281 16.8313 68.8281 18.5513C68.8281 18.8232 68.8618 19.1087 68.8754 19.3943L71.6932 18.1366Z" fill="white"/>
<path d="M66.2577 22.0865C66.2577 22.6983 66.3658 22.7935 66.8794 22.8411C67.1497 22.8751 67.4132 22.8887 67.6768 22.9159L67.1024 23.2626H64.3521C64.7102 22.7867 64.7778 22.7391 64.7778 22.4264V22.0729L64.771 12.6912H63.5547L64.7237 12.1201H66.9537C66.4672 12.4056 66.3253 12.5756 66.2644 13.1263L66.2577 22.0865Z" fill="white"/>
<path d="M61.9911 16.6343C62.3493 16.9334 63.0926 17.5657 63.0926 18.7622C63.0926 19.9315 62.4439 20.4822 61.7884 21.0056C61.5857 21.2096 61.3492 21.4339 61.3492 21.7806C61.3492 22.1273 61.5857 22.3177 61.7546 22.4605L62.3155 22.9024C62.998 23.487 63.6197 24.0241 63.6197 25.1118C63.6197 26.5939 62.2006 28.0963 59.5246 28.0963C57.2676 28.0963 56.1797 27.0086 56.1797 25.8392C56.1797 25.2682 56.4567 24.466 57.3825 23.9153C58.3488 23.3171 59.653 23.2355 60.3558 23.1879C60.1396 22.9024 59.8895 22.6032 59.8895 22.1138C59.8895 21.8486 59.9706 21.6855 60.045 21.4951C59.876 21.5087 59.7003 21.5291 59.5449 21.5291C57.8961 21.5291 56.9636 20.2782 56.9636 19.0477C56.9636 18.3203 57.2879 17.5181 57.9637 16.9334C58.8489 16.1924 59.9098 16.0632 60.7477 16.0632H63.9575L62.9574 16.6343H61.9911ZM60.8964 23.6298C60.768 23.6094 60.6937 23.6094 60.5383 23.6094C60.3964 23.6094 59.5449 23.6434 58.8894 23.8677C58.5448 23.9969 57.5379 24.3844 57.5379 25.5265C57.5379 26.6686 58.6191 27.4912 60.3017 27.4912C61.8087 27.4912 62.606 26.7502 62.606 25.7577C62.606 24.9283 62.0857 24.4932 60.8964 23.6298ZM61.3356 20.5841C61.6938 20.2238 61.7276 19.7207 61.7276 19.4352C61.7276 18.2999 61.0653 16.5391 59.7747 16.5391C59.376 16.5391 58.9367 16.7431 58.6867 17.0626C58.4232 17.3889 58.3488 17.8172 58.3488 18.2251C58.3488 19.2788 58.957 21.026 60.2882 21.026C60.6734 21.026 61.0924 20.8357 61.3356 20.5841Z" fill="white"/>
<path d="M52.2888 23.4733C49.8088 23.4733 48.4844 21.5018 48.4844 19.7206C48.4844 17.6403 50.1535 15.8591 52.5253 15.8591C54.8161 15.8591 56.2555 17.6879 56.2555 19.6118C56.2555 21.4882 54.8364 23.4733 52.2888 23.4733ZM54.2282 22.1884C54.6067 21.6785 54.7013 21.0395 54.7013 20.4208C54.7013 19.0136 54.0458 16.335 52.0996 16.335C51.5861 16.335 51.0657 16.539 50.6873 16.8789C50.0791 17.4363 49.9643 18.1366 49.9643 18.8232C49.9643 20.4004 50.7279 22.9974 52.6267 22.9974C53.2484 22.9974 53.8701 22.6983 54.2282 22.1884Z" fill="white"/>
<path d="M43.9763 23.4733C41.4963 23.4733 40.1719 21.5018 40.1719 19.7206C40.1719 17.6403 41.841 15.8591 44.2128 15.8591C46.5036 15.8591 47.943 17.6879 47.943 19.6118C47.943 21.4882 46.5239 23.4733 43.9763 23.4733ZM45.9157 22.1884C46.2942 21.6785 46.3888 21.0395 46.3888 20.4208C46.3888 19.0136 45.7265 16.335 43.7871 16.335C43.2668 16.335 42.7532 16.539 42.3748 16.8789C41.7599 17.4363 41.6518 18.1366 41.6518 18.8232C41.6518 20.4004 42.4221 22.9974 44.3142 22.9974C44.9359 22.9974 45.5576 22.6983 45.9157 22.1884Z" fill="white"/>
<path d="M39.1461 23.0044L37.0446 23.4938C36.1931 23.6298 35.4295 23.7522 34.6186 23.7522C30.5641 23.7454 29.0234 20.7269 29.0234 18.3611C29.0234 15.4786 31.2129 12.8 34.9565 12.8C35.7471 12.8 36.5107 12.9156 37.2067 13.1128C38.3082 13.4255 38.8218 13.813 39.1461 14.0373L37.923 15.2135L37.4095 15.329L37.7744 14.7376C37.2743 14.2481 36.3621 13.3371 34.6321 13.3371C32.3143 13.3371 30.5641 15.1183 30.5641 17.722C30.5641 20.5162 32.5576 23.1471 35.7606 23.1471C36.6999 23.1471 37.1865 22.9568 37.6257 22.78V20.3802L35.4093 20.5026L36.5851 19.8635H39.7003L39.3218 20.2374C39.2205 20.3258 39.207 20.353 39.1732 20.4754C39.1597 20.6113 39.1461 21.0396 39.1461 21.196V23.0044Z" fill="white"/>
<path d="M78.4703 22.2428V26.2606H77.6797V16.0427H78.4703V17.2052C78.9839 16.4506 79.9299 15.8591 81.0179 15.8591C82.9776 15.8591 84.302 17.3616 84.302 19.7342C84.302 22.0932 82.9843 23.6228 81.0179 23.6228C79.9907 23.6228 79.065 23.0858 78.4703 22.2428ZM83.4911 19.7954C83.4911 17.987 82.5653 16.6069 80.9165 16.6069C79.8961 16.6069 78.9163 17.4227 78.4906 18.1366V21.4406C78.9163 22.1544 79.8961 22.9974 80.9165 22.9974C82.5653 22.9974 83.4911 21.6037 83.4911 19.7954Z" fill="white"/>
<path d="M85.3828 13.2078H86.1937V23.4733H85.3828V13.2078Z" fill="white"/>
<path d="M95.0115 25.5536C95.1804 25.6284 95.471 25.6759 95.6534 25.6759C96.14 25.6759 96.4711 25.4788 96.7752 24.7718L97.3496 23.4529L94.2344 15.9951H95.1196L97.7888 22.4603L100.438 15.9951H101.33L97.532 25.0165C97.1401 25.9479 96.5184 26.3966 95.667 26.3966C95.4102 26.3966 95.0723 26.349 94.8763 26.2878L95.0115 25.5536Z" fill="white"/>
<path d="M92.7706 23.4665C92.7166 23.2081 92.676 22.9838 92.649 22.7934C92.622 22.6031 92.6085 22.4127 92.6085 22.2156C92.3382 22.6167 91.953 22.9566 91.4529 23.2217C90.9596 23.4869 90.4866 23.616 89.8446 23.616C89.0675 23.616 88.4661 23.4257 88.0404 23.0314C87.6147 22.6439 87.3984 22.1136 87.3984 21.4474C87.3984 20.7811 87.7093 20.2373 88.331 19.8226C88.9527 19.4079 89.7568 19.1971 90.7501 19.1971H92.6017V18.2725C92.6017 17.7423 92.4192 17.3208 92.0611 17.0216C91.703 16.7157 91.1961 16.5662 90.5407 16.5662C89.9392 16.5662 89.4527 16.7089 89.081 16.9809C88.7161 17.2596 88.5269 17.6063 88.5269 18.021H87.716L87.7025 17.9802C87.6755 17.4159 87.9255 16.9265 88.4729 16.4982C89.0135 16.0699 89.7162 15.8591 90.588 15.8591C91.4529 15.8591 92.1557 16.0699 92.6828 16.4914C93.2099 16.9061 93.4734 17.5111 93.4734 18.2929V21.964C93.4734 22.2292 93.4869 22.4807 93.5207 22.7323C93.5545 22.9838 93.6086 23.2285 93.6761 23.4665H92.7706ZM89.946 22.9294C90.6218 22.9294 91.1083 22.773 91.6016 22.4739C92.0949 22.1748 92.426 21.7805 92.6017 21.3046V19.8702H90.7366C90.0271 19.8702 89.4392 20.0265 88.9729 20.3528C88.5067 20.6724 88.2769 21.0599 88.2769 21.5153C88.2769 21.9436 88.4256 22.2836 88.7229 22.5419C89.027 22.8002 89.4324 22.9294 89.946 22.9294Z" fill="white"/>
<path d="M28.75 6.29406C28.75 4.83242 29.9123 3.88745 31.3584 3.88745C32.3247 3.88745 32.9599 4.32254 33.3586 4.85281L32.6491 5.23352C32.3788 4.88681 31.9125 4.61487 31.3584 4.61487C30.3786 4.61487 29.642 5.3151 29.642 6.29406C29.6487 7.26622 30.3786 7.97325 31.3584 7.97325C31.8652 7.97325 32.3112 7.7557 32.5342 7.55175V6.83793H31.0475V6.11731H33.3991V7.85088C32.9126 8.36076 32.2166 8.70067 31.3584 8.70067C29.9123 8.70747 28.75 7.7557 28.75 6.29406Z" fill="white"/>
<path d="M34.5312 8.63941V3.96216H37.9843V4.68278H35.4165V5.88609H37.9303V6.61351H35.4165V7.91879H37.9843V8.63941H34.5312Z" fill="white"/>
<path d="M40.3283 8.63941V4.68278H38.8281V3.96216H42.7002V4.68278H41.2V8.63941H40.3283Z" fill="white"/>
<path d="M45.7969 3.96216H46.6416V8.63941H45.7969V3.96216Z" fill="white"/>
<path d="M49.0627 8.63941V4.68278H47.5625V3.96216H51.4345V4.68278H49.9344V8.63941H49.0627Z" fill="white"/>
<path d="M54.3281 6.3009C54.3281 4.91404 55.389 3.89429 56.9027 3.89429C58.4029 3.89429 59.4706 4.91404 59.4706 6.3009C59.4706 7.68776 58.3961 8.70751 56.9027 8.70751C55.389 8.70751 54.3281 7.68776 54.3281 6.3009ZM58.5515 6.26011C58.5515 5.30834 57.9028 4.59452 56.896 4.59452C55.8823 4.59452 55.2404 5.30834 55.2404 6.26011C55.2404 7.20508 55.8823 7.9257 56.896 7.9257C57.9028 7.9257 58.5515 7.21188 58.5515 6.26011Z" fill="white"/>
<path d="M63.913 8.63941L61.3248 5.29463V8.63941H60.4531V3.96216H61.3451L63.8792 7.20496V3.96216H64.7509V8.63941H63.913Z" fill="white"/>
<defs>
<linearGradient id="paint0_linear_12989_129961" x1="13.3915" y1="16.1048" x2="19.1772" y2="24.5443" gradientUnits="userSpaceOnUse">
<stop stop-color="#FF177B"/>
<stop offset="1" stop-color="#FFEC73"/>
</linearGradient>
<linearGradient id="paint1_linear_12989_129961" x1="15.8308" y1="4.24332" x2="5.42146" y2="26.2156" gradientUnits="userSpaceOnUse">
<stop stop-color="#064AA2"/>
<stop offset="1" stop-color="#63FFD4"/>
</linearGradient>
<linearGradient id="paint2_linear_12989_129961" x1="18.9522" y1="14.1296" x2="6.22643" y2="21.6967" gradientUnits="userSpaceOnUse">
<stop stop-color="#FF4521"/>
<stop offset="1" stop-color="#8A33DB"/>
</linearGradient>
<linearGradient id="paint3_linear_12989_129961" x1="11.6744" y1="7.84704" x2="16.264" y2="19.7051" gradientUnits="userSpaceOnUse">
<stop stop-color="#00A3B5"/>
<stop offset="1" stop-color="#D6FFA1"/>
</linearGradient>
</defs>
</svg>
